<?xml version="1.0" encoding="utf-8"?>
<!-- Generator: Adobe Illustrator 12.0.0, SVG Export Plug-In . SVG Version: 6.00 Build 51448)  -->
<!DOCTYPE svg PUBLIC "-//W3C//DTD SVG 1.1//EN" "http://www.w3.org/Graphics/SVG/1.1/DTD/svg11.dtd" [
	<!ENTITY ns_svg "http://www.w3.org/2000/svg">
	<!ENTITY ns_xlink "http://www.w3.org/1999/xlink">
]>
<svg  version="1.1" id="Layer_1" xmlns="&ns_svg;" xmlns:xlink="&ns_xlink;" width="32" height="32" viewBox="0 0 32 32"
	 overflow="visible" enable-background="new 0 0 32 32" xml:space="preserve">
<path fill="#3B5998" d="M4,0h24c2.209,0,4,1.791,4,4v24c0,2.209-1.791,4-4,4H4c-2.209,0-4-1.791-4-4V4C0,1.791,1.791,0,4,0z"/>
<path fill="#FFFFFF" d="M17.936,28.5V17.096h3.828l0.572-4.443h-4.4V9.816c0-1.287,0.357-2.164,2.203-2.164l2.354-0.001V3.676
	c-0.407-0.054-1.805-0.175-3.43-0.175c-3.394,0-5.715,2.072-5.715,5.875v3.277H9.51v4.443h3.837V28.5H17.936L17.936,28.5z"/>
</svg>
