<?xml version="1.0" encoding="utf-8"?>
<!-- Generator: Adobe Illustrator 12.0.0, SVG Export Plug-In . SVG Version: 6.00 Build 51448)  -->
<!DOCTYPE svg PUBLIC "-//W3C//DTD SVG 1.1//EN" "http://www.w3.org/Graphics/SVG/1.1/DTD/svg11.dtd" [
	<!ENTITY ns_svg "http://www.w3.org/2000/svg">
	<!ENTITY ns_xlink "http://www.w3.org/1999/xlink">
]>
<svg  version="1.1" id="Layer_1" xmlns="&ns_svg;" xmlns:xlink="&ns_xlink;" width="32" height="32" viewBox="0 0 32 32"
	 overflow="visible" enable-background="new 0 0 32 32" xml:space="preserve">
<path fill="#00ABF1" d="M4,0h24c2.209,0,4,1.791,4,4v24c0,2.209-1.791,4-4,4H4c-2.209,0-4-1.791-4-4V4C0,1.791,1.791,0,4,0z"/>
<path fill="#FFFFFF" d="M28.5,8.246c-0.92,0.408-1.908,0.684-2.945,0.808c1.059-0.635,1.872-1.64,2.256-2.837
	c-0.992,0.588-2.09,1.014-3.259,1.244c-0.935-0.997-2.269-1.62-3.743-1.62c-2.832,0-5.128,2.297-5.128,5.129
	c0,0.402,0.045,0.793,0.133,1.169c-4.263-0.214-8.042-2.256-10.572-5.36C4.799,7.537,4.546,8.418,4.546,9.358
	c0,1.779,0.905,3.349,2.282,4.269c-0.84-0.027-1.631-0.257-2.323-0.642c0,0.021,0,0.043,0,0.064c0,2.485,1.768,4.559,4.114,5.029
	c-0.431,0.117-0.884,0.181-1.351,0.181c-0.331,0-0.652-0.032-0.965-0.093c0.652,2.037,2.547,3.521,4.791,3.563
	c-1.755,1.375-3.967,2.195-6.371,2.195c-0.414,0-0.822-0.023-1.223-0.072c2.271,1.457,4.966,2.306,7.863,2.306
	c9.434,0,14.593-7.815,14.593-14.593c0-0.223-0.005-0.444-0.015-0.664C26.941,10.178,27.813,9.275,28.5,8.246L28.5,8.246z"/>
</svg>
