<?xml version="1.0" encoding="utf-8"?>
<!-- Generator: Adobe Illustrator 12.0.0, SVG Export Plug-In . SVG Version: 6.00 Build 51448)  -->
<!DOCTYPE svg PUBLIC "-//W3C//DTD SVG 1.1//EN" "http://www.w3.org/Graphics/SVG/1.1/DTD/svg11.dtd" [
	<!ENTITY ns_svg "http://www.w3.org/2000/svg">
	<!ENTITY ns_xlink "http://www.w3.org/1999/xlink">
]>
<svg  version="1.1" id="Layer_1" xmlns="&ns_svg;" xmlns:xlink="&ns_xlink;" width="512" height="512" viewBox="0 0 512 512"
	 overflow="visible" enable-background="new 0 0 512 512" xml:space="preserve">
<path fill="#00ABF1" d="M244,240h24c2.209,0,4,1.791,4,4v24c0,2.209-1.791,4-4,4h-24c-2.209,0-4-1.791-4-4v-24
	C240,241.791,241.791,240,244,240z"/>
<path fill="#FFFFFF" d="M268.5,248.246c-0.92,0.408-1.908,0.684-2.945,0.808c1.059-0.635,1.872-1.64,2.255-2.837
	c-0.991,0.588-2.089,1.014-3.258,1.244c-0.935-0.997-2.269-1.62-3.743-1.62c-2.833,0-5.129,2.297-5.129,5.129
	c0,0.402,0.045,0.793,0.133,1.169c-4.263-0.214-8.042-2.256-10.572-5.36c-0.442,0.758-0.695,1.639-0.695,2.579
	c0,1.779,0.905,3.349,2.282,4.269c-0.84-0.027-1.631-0.257-2.323-0.642c0,0.021,0,0.043,0,0.064c0,2.485,1.768,4.558,4.114,5.029
	c-0.431,0.117-0.884,0.181-1.351,0.181c-0.331,0-0.652-0.033-0.965-0.093c0.652,2.037,2.547,3.521,4.791,3.562
	c-1.755,1.376-3.967,2.196-6.371,2.196c-0.414,0-0.822-0.024-1.223-0.072c2.271,1.456,4.966,2.305,7.863,2.305
	c9.434,0,14.593-7.815,14.593-14.593c0-0.223-0.005-0.444-0.015-0.664C266.942,250.178,267.813,249.275,268.5,248.246L268.5,248.246
	z"/>
</svg>
