<svg xmlns="http://www.w3.org/2000/svg" width="25" height="25.5" viewBox="0 0 25 25.5"><defs><style>.a{fill:#4285f4;}.b{fill:#34a853;}.c{fill:#fbbc04;}.d{fill:#ea4335;}</style></defs><title>g-logo</title><path class="a" d="M25,13.05a15.13,15.13,0,0,0-.22-2.6h-12v4.91h6.89a5.89,5.89,0,0,1-2.55,3.88v3.19H21.2A12.46,12.46,0,0,0,25,13.05Z"/><path class="b" d="M12.75,25.5a12.18,12.18,0,0,0,8.45-3.07l-4.1-3.19a7.73,7.73,0,0,1-11.5-4H1.36v3.28A12.73,12.73,0,0,0,12.75,25.5Z"/><path class="c" d="M5.59,15.2a7.72,7.72,0,0,1,0-4.89V7H1.36a12.75,12.75,0,0,0,0,11.45Z"/><path class="d" d="M12.75,5.05A6.88,6.88,0,0,1,17.64,7h0l3.64-3.64A12.2,12.2,0,0,0,12.75,0,12.74,12.74,0,0,0,1.36,7l4.23,3.28A7.63,7.63,0,0,1,12.75,5.05Z"/></svg>