<?xml version="1.0" encoding="utf-8"?>
<!-- Generator: Adobe Illustrator 12.0.0, SVG Export Plug-In . SVG Version: 6.00 Build 51448)  -->
<!DOCTYPE svg PUBLIC "-//W3C//DTD SVG 1.1//EN" "http://www.w3.org/Graphics/SVG/1.1/DTD/svg11.dtd" [
	<!ENTITY ns_svg "http://www.w3.org/2000/svg">
	<!ENTITY ns_xlink "http://www.w3.org/1999/xlink">
]>
<svg  version="1.1" id="Layer_1" xmlns="&ns_svg;" xmlns:xlink="&ns_xlink;" width="300" height="279.775"
	 viewBox="0 0 300 279.775" overflow="visible" enable-background="new 0 0 300 279.775" xml:space="preserve">
<g transform="translate(0.000000,1000.000000) scale(0.100000,-0.100000)">
	<path fill="#CCCCCC" d="M2598.55,9996.132c-49.18-15.723-80.303-82.646-137.52-295.791
		c-32.793-122.466-48.848-176.001-67.588-225.859c-22.08-58.555-60.566-133.174-82.314-159.941l-7.363-9.702l-29.775,44.165
		c-47.52,70.605-83.984,115.439-137.529,169.312c-71.602,71.943-122.129,108.75-204.111,148.564
		c-114.433,55.884-249.277,83.652-408.213,83.652c-244.268,0-485.85-93.354-685.947-264.673
		c-37.476-31.787-111.089-107.407-135.85-138.525c-46.177-58.223-79.634-111.426-115.776-184.033
		c-55.874-111.763-93.354-223.521-154.922-460.088c-49.521-191.055-68.594-255.635-102.051-346.65
		c-67.925-184.365-163.96-374.755-291.445-579.208C17.065,7743.896,0,7714.785,0,7713.115c0-2.012,1.675-3.682,3.682-3.682
		s19.741-13.389,39.482-29.443c289.77-240.918,689.961-399.189,1153.057-455.4c342.632-41.826,610.317-24.766,789.673,49.854
		c18.398,7.695,38.477,15.732,44.502,17.734c10.703,3.35,10.039,3.682-31.787,19.746c-111.426,42.49-190.058,96.367-236.904,161.611
		c-41.826,58.887-61.904,121.465-62.568,194.072c-0.342,106.738,41.826,207.451,119.121,284.414
		c90.342,89.346,207.119,124.805,329.922,100.049c187.041-38.145,317.207-206.787,306.494-397.852
		c-4.014-78.291-23.76-128.154-83.652-213.477c-14.053-20.078-25.43-37.139-25.43-38.145s4.688,2.344,10.039,7.031
		c5.693,4.678,27.1,16.729,47.52,27.1c108.076,54.541,195.4,117.441,282.07,204.111c61.904,61.572,93.359,100.049,140.537,170.645
		c89.336,133.848,144.209,280.742,167.969,450.048c8.369,58.887,8.369,208.799,0,267.686
		c-25.762,183.364-86.328,327.246-186.045,440.679c-78.633,89.673-195.41,161.948-305.83,190.054
		c-24.424,6.025-31.113,9.038-31.787,14.058c-0.996,7.021,35.469,58.555,71.611,100.381
		c35.801,41.489,79.971,85.659,183.691,183.027c166.309,156.265,205.459,202.437,220.85,261.665
		c6.016,23.755,6.357,43.833,0.332,68.926c-13.389,56.885-77.969,115.776-184.033,167.974
		C2683.882,9994.794,2633.022,10007.177,2598.55,9996.132z"/>
</g>
</svg>
