<?xml version="1.0" encoding="utf-8"?>
<!-- Generator: Adobe Illustrator 12.0.0, SVG Export Plug-In . SVG Version: 6.00 Build 51448)  -->
<!DOCTYPE svg PUBLIC "-//W3C//DTD SVG 1.1//EN" "http://www.w3.org/Graphics/SVG/1.1/DTD/svg11.dtd" [
	<!ENTITY ns_svg "http://www.w3.org/2000/svg">
	<!ENTITY ns_xlink "http://www.w3.org/1999/xlink">
]>
<svg  version="1.1" id="Layer_1" xmlns="&ns_svg;" xmlns:xlink="&ns_xlink;" width="200" height="186.517"
	 viewBox="0 0 200 186.517" overflow="visible" enable-background="new 0 0 200 186.517" xml:space="preserve">
<g transform="translate(0.000000,1000.000000) scale(0.100000,-0.100000)">
	<path fill="#CCCCCC" d="M1732.368,9997.421c-32.793-10.479-53.535-55.098-91.68-197.192
		c-21.865-81.646-32.568-117.334-45.059-150.571c-14.717-39.038-40.381-88.784-54.873-106.631l-4.912-6.465l-19.854,29.443
		c-31.68,47.07-55.986,76.958-91.68,112.871c-47.734,47.964-81.426,72.5-136.074,99.043
		c-76.289,37.256-166.191,55.771-272.148,55.771c-162.842,0-323.896-62.236-457.295-176.45
		c-24.985-21.191-74.063-71.606-90.566-92.349c-30.786-38.818-53.091-74.287-77.183-122.69
		c-37.251-74.507-62.236-149.014-103.281-306.724c-33.018-127.368-45.732-170.425-68.037-231.099
		c-45.283-122.91-109.307-249.844-194.297-386.143C11.377,8495.932,0,8476.527,0,8475.414c0-1.348,1.118-2.461,2.456-2.461
		s13.159-8.926,26.323-19.629c193.179-160.605,459.971-266.123,768.701-303.594c228.423-27.891,406.88-16.514,526.45,33.232
		c12.266,5.127,25.654,10.488,29.668,11.826c7.139,2.227,6.689,2.451-21.191,13.164c-74.287,28.32-126.709,64.238-157.939,107.734
		c-27.881,39.258-41.27,80.977-41.709,129.385c-0.225,71.162,27.881,138.301,79.414,189.609
		c60.225,59.561,138.076,83.203,219.951,66.699c124.688-25.43,211.465-137.861,204.326-265.234
		c-2.676-52.197-15.84-85.439-55.771-142.314c-9.365-13.389-16.953-24.766-16.953-25.43c0-0.674,3.125,1.563,6.699,4.688
		c3.789,3.115,18.066,11.152,31.68,18.066c72.041,36.357,130.264,78.291,188.037,136.074c41.27,41.045,62.246,66.699,93.691,113.76
		c59.56,89.229,96.142,187.158,111.982,300.029c5.576,39.258,5.576,139.199,0,178.457
		c-17.178,122.246-57.549,218.169-124.033,293.789c-52.422,59.78-130.273,107.964-203.887,126.704
		c-16.279,4.014-20.742,6.025-21.191,9.37c-0.664,4.683,23.652,39.038,47.744,66.919c23.867,27.661,53.311,57.109,122.461,122.021
		c110.869,104.175,136.973,134.956,147.236,174.443c4.004,15.835,4.238,29.219,0.215,45.947
		c-8.926,37.925-51.973,77.188-122.685,111.982C1789.253,9996.532,1755.347,10004.784,1732.368,9997.421z"/>
</g>
</svg>
