<?xml version="1.0" encoding="utf-8"?>
<!-- Generator: Adobe Illustrator 12.0.0, SVG Export Plug-In . SVG Version: 6.00 Build 51448)  -->
<!DOCTYPE svg PUBLIC "-//W3C//DTD SVG 1.1//EN" "http://www.w3.org/Graphics/SVG/1.1/DTD/svg11.dtd" [
	<!ENTITY ns_svg "http://www.w3.org/2000/svg">
	<!ENTITY ns_xlink "http://www.w3.org/1999/xlink">
]>
<svg  version="1.1" id="Layer_1" xmlns="&ns_svg;" xmlns:xlink="&ns_xlink;" width="100" height="93.258" viewBox="0 0 100 93.258"
	 overflow="visible" enable-background="new 0 0 100 93.258" xml:space="preserve">
<g transform="translate(0.000000,1000.000000) scale(0.100000,-0.100000)">
	<path fill="#CCCCCC" d="M866.186,9998.71c-16.396-5.234-26.768-27.549-45.84-98.594c-10.938-40.82-16.289-58.667-22.529-75.288
		c-7.363-19.517-20.195-44.39-27.441-53.315l-2.461-3.232l-9.922,14.727c-15.84,23.535-27.988,38.477-45.84,56.431
		c-23.867,23.984-40.703,36.25-68.027,49.526c-38.145,18.628-83.105,27.886-136.084,27.886c-81.416,0-161.943-31.118-228.647-88.228
		c-12.485-10.596-37.031-35.801-45.283-46.177c-15.391-19.404-26.543-37.144-38.589-61.343
		c-18.628-37.256-31.113-74.507-51.636-153.359c-16.514-63.682-22.871-85.215-34.023-115.547
		c-22.637-61.455-54.653-124.922-97.148-193.076C5.693,9247.968,0,9238.261,0,9237.714c0-0.684,0.562-1.23,1.23-1.23
		s6.577-4.473,13.159-9.814c96.587-80.313,229.985-133.066,384.355-151.807c114.209-13.936,203.437-8.252,263.223,16.621
		c6.133,2.568,12.822,5.254,14.834,5.908c3.574,1.113,3.34,1.23-10.596,6.592c-37.148,14.15-63.359,32.119-78.975,53.857
		c-13.936,19.629-20.635,40.498-20.85,64.697c-0.117,35.586,13.936,69.15,39.707,94.805c30.107,29.785,69.033,41.602,109.971,33.35
		c62.344-12.715,105.742-68.926,102.168-132.617c-1.348-26.104-7.92-42.715-27.891-71.152c-4.678-6.699-8.467-12.393-8.467-12.715
		c0-0.342,1.553,0.781,3.34,2.334c1.895,1.563,9.033,5.586,15.84,9.043c36.025,18.174,65.137,39.141,94.023,68.027
		c20.635,20.527,31.113,33.35,46.846,56.885c29.775,44.609,48.076,93.574,55.986,150.01c2.793,19.629,2.793,69.6,0,89.229
		c-8.584,61.128-28.779,109.087-62.021,146.899c-26.201,29.888-65.127,53.979-101.934,63.35c-8.135,2.012-10.381,3.018-10.596,4.688
		c-0.332,2.344,11.826,19.517,23.877,33.462c11.924,13.828,26.65,28.55,61.221,61.011c55.439,52.085,68.486,67.476,73.623,87.217
		c2.002,7.915,2.119,14.609,0.107,22.974c-4.463,18.965-25.986,38.594-61.348,55.991
		C894.624,9998.266,877.681,10002.396,866.186,9998.71z"/>
</g>
</svg>
