<?xml version="1.0" encoding="utf-8"?>
<!-- Generator: Adobe Illustrator 24.0.3, SVG Export Plug-In . SVG Version: 6.00 Build 0)  -->
<svg version="1.1" id="Layer_2" xmlns="http://www.w3.org/2000/svg" xmlns:xlink="http://www.w3.org/1999/xlink" x="0px" y="0px"
	 viewBox="0 0 100.36 17.26" style="enable-background:new 0 0 100.36 17.26;" xml:space="preserve">
<style type="text/css">
	.st0{fill:#FFFFFF;}
</style>
<path class="st0" d="M43.67,0.36c0.26,0.72,0.41,1.49,0.4,2.28c-0.03,3.24-2.49,5.98-5.91,7c-0.79-3.91-6.83-7.03-14.25-7.18l0,0
	c-0.02,0-0.05,0-0.07,0c-0.02,0-0.05,0-0.07,0l0,0C16.35,2.48,10.25,5.49,9.39,9.38C5.98,8.3,3.57,5.52,3.6,2.28
	C3.61,1.48,3.76,0.72,4.04,0C1.63,1.66,0.03,4.42,0,7.57c-0.05,5.12,4.07,9.32,9.19,9.36c0.03,0,0.07,0,0.1,0l14.31,0.13l0,0.2
	l0-0.2l0.2,0l0,0.2l0-0.2l14.31,0.13c0.03,0,0.07,0,0.1,0c5.12,0.05,9.32-4.07,9.36-9.19C47.61,4.86,46.06,2.06,43.67,0.36z"/>
<g>
	<path class="st0" d="M55.15,5.94c0.1-0.26,0.32-0.37,0.54-0.36c0.3,0,0.6,0.21,0.6,0.52c0,0.05-0.01,0.12-0.04,0.18l-2.42,6.11
		c-0.21,0.52-0.62,0.78-1.05,0.77s-0.87-0.28-1.08-0.85l-2.18-5.72c-0.04-0.11-0.06-0.22-0.06-0.33c0-0.46,0.44-0.75,0.85-0.75
		c0.3,0,0.59,0.15,0.71,0.49l1.89,5.3c0.02,0.05,0.06,0.08,0.11,0.08c0.04,0,0.1-0.03,0.11-0.08L55.15,5.94z"/>
	<path class="st0" d="M56.89,6.3c0-0.46,0.4-0.85,0.86-0.84c0.46,0,0.86,0.4,0.85,0.86c0,0.48-0.41,0.87-0.87,0.86
		C57.28,7.17,56.89,6.78,56.89,6.3z M57.01,8.51c0-0.48,0.36-0.73,0.71-0.72c0.37,0,0.73,0.26,0.72,0.74l-0.04,3.98
		c0,0.47-0.36,0.7-0.72,0.7c-0.36,0-0.72-0.24-0.71-0.71L57.01,8.51z"/>
	<path class="st0" d="M59.78,5.93c0-0.48,0.37-0.73,0.73-0.72c0.37,0,0.74,0.25,0.73,0.74l-0.06,6.59c0,0.47-0.37,0.71-0.74,0.71
		c-0.36,0-0.73-0.24-0.72-0.72L59.78,5.93z"/>
	<path class="st0" d="M62.64,5.95c0-0.48,0.37-0.73,0.73-0.72c0.37,0,0.74,0.25,0.73,0.74l-0.06,6.59c0,0.47-0.37,0.71-0.74,0.71
		c-0.36,0-0.73-0.24-0.72-0.72L62.64,5.95z"/>
	<path class="st0" d="M69.52,11.94c0,0.34,0.11,0.45,0.23,0.45c0.03,0,0.05-0.01,0.08-0.02c0.04-0.02,0.09-0.03,0.13-0.02
		c0.18,0,0.31,0.17,0.3,0.35c0,0.39-0.56,0.61-1.09,0.6c-0.61,0-0.85-0.33-0.91-0.55c-0.38,0.34-1.02,0.54-1.67,0.54
		c-1-0.01-1.66-0.52-1.65-1.43c0.01-0.85,0.52-1.42,1.28-1.67c0.68-0.22,1.36-0.25,1.95-0.38c0.01-0.78-0.27-1.08-0.96-1.08
		c-0.31,0-0.77,0.12-1.17,0.52c-0.11,0.1-0.23,0.15-0.34,0.15c-0.24,0-0.46-0.2-0.45-0.44c0-0.54,1.15-1.1,2.22-1.09
		c1.27,0.01,2.08,0.66,2.07,1.92L69.52,11.94z M68.17,10.62c-1.02,0.1-1.77,0.25-1.78,1c0,0.54,0.26,0.8,0.77,0.81
		c0.46,0,1-0.32,1-0.59L68.17,10.62z"/>
	<path class="st0" d="M72.19,11.84c0,0.17,0.15,0.23,0.7,0.26c2.24,0.11,2.91,0.62,2.9,1.68c-0.01,1.12-1.19,1.76-2.79,1.75
		c-1.38-0.01-2.47-0.5-2.46-1.46c0-0.53,0.4-0.95,0.73-1.1c-0.21-0.13-0.37-0.41-0.37-0.73c0-0.34,0.37-0.75,0.62-0.91
		c-0.44-0.26-0.84-0.74-0.83-1.59c0.01-1.26,1.13-1.83,2.34-1.82c0.47,0,0.87,0.09,1.13,0.2c0.22-0.23,0.62-0.56,1.1-0.55
		c0.49,0,0.73,0.44,0.72,0.64c0,0.4-0.16,0.67-0.61,0.66c-0.16,0-0.32-0.13-0.38-0.26c-0.03-0.05-0.09-0.07-0.15-0.07
		c-0.04,0-0.1,0.01-0.12,0.02c0.35,0.42,0.5,0.94,0.5,1.25c-0.01,1.27-1.12,1.76-2.39,1.75c-0.07,0-0.3-0.02-0.39-0.04
		C72.38,11.57,72.2,11.67,72.19,11.84z M71.57,14.01c-0.01,0.73,1.2,0.74,1.32,0.74c0.84,0.01,1.45-0.28,1.46-0.68
		c0.01-0.6-0.3-0.91-2.13-0.93C71.81,13.28,71.57,13.67,71.57,14.01z M73.89,9.79c0.01-0.74-0.3-1.15-0.87-1.16
		c-0.6-0.01-0.96,0.37-0.97,1.13c-0.01,0.65,0.29,1.11,0.9,1.12C73.6,10.88,73.89,10.41,73.89,9.79z"/>
	<path class="st0" d="M77.74,10.98c0.1,0.93,0.54,1.54,1.39,1.55c0.49,0,1.02-0.17,1.38-0.56c0.11-0.11,0.23-0.17,0.34-0.16
		c0.24,0,0.44,0.21,0.44,0.46c0,0.47-0.98,1.15-2.21,1.14c-1.78-0.02-2.8-1.01-2.79-2.74c0.01-1.6,1.08-2.71,2.69-2.69
		c1.3,0.01,2.43,0.85,2.41,2.54c0,0.28-0.29,0.49-0.5,0.49L77.74,10.98z M79.76,10.24c0.09,0,0.19-0.03,0.19-0.13
		c0-0.02,0-0.04,0-0.05c0.01-0.81-0.38-1.27-0.99-1.27c-0.79-0.01-1.21,0.59-1.22,1.41c0,0.01,0,0.02,0,0.03L79.76,10.24z"/>
	<path class="st0" d="M82.25,8.64c0-0.4,0.38-0.62,0.74-0.62c0.33,0,0.65,0.19,0.65,0.61c0.23-0.33,0.76-0.59,1.44-0.58
		c0.35,0,0.69,0.08,0.68,0.47c0,0.25-0.19,0.5-0.47,0.5c-0.01,0-0.03,0-0.04,0c-0.07-0.01-0.14-0.01-0.21-0.01
		c-0.77-0.01-1.41,0.35-1.42,1.18l-0.02,2.54c0,0.47-0.36,0.7-0.7,0.7c-0.35,0-0.69-0.24-0.69-0.71L82.25,8.64z"/>
	<path class="st0" d="M87.5,13.39c-0.55,0-1.03-0.33-1.03-0.97l0.05-5.5c0.01-0.69,0.62-0.99,1.05-0.98l1.5,0.01
		c0.01,0,0.03,0,0.04,0c2.38,0.02,4.17,0.96,4.15,3.63c-0.03,2.88-1.83,3.84-4.26,3.82L87.5,13.39z M89.09,12.49
		c1.46,0.01,2.47-0.98,2.49-2.9c0.02-2.06-0.87-2.75-2.49-2.76c-0.02,0-0.03,0-0.04,0l-0.69-0.01c-0.14,0-0.27,0.16-0.27,0.3
		l-0.05,5.07c0,0.14,0.16,0.28,0.32,0.28L89.09,12.49z"/>
	<path class="st0" d="M95.26,13.46c-0.79-0.01-1.09-0.51-1.08-1.01l0.05-5.47c0.01-0.59,0.47-0.97,1.02-0.97l2.23,0.02
		c1.43,0.01,2.46,0.64,2.44,1.88c-0.01,0.68-0.53,1.31-1.09,1.49c0,0-0.01,0-0.01,0.01l0.01,0.01c0.89,0.2,1.55,0.95,1.54,1.9
		c-0.01,1.49-1.36,2.17-3.15,2.15L95.26,13.46z M97.01,12.59c1.03,0.01,1.73-0.63,1.74-1.45c0.01-0.9-0.96-1.19-1.84-1.2l-1.25-0.01
		l-0.02,2.45c0,0.09,0.05,0.19,0.21,0.2L97.01,12.59z M95.9,6.86c-0.11,0-0.22,0.1-0.22,0.24l-0.02,2.01
		c1.25,0.01,1.74-0.07,1.86-0.1c0.43-0.1,0.81-0.57,0.82-1.18c0.01-0.87-1.16-0.96-1.51-0.96L95.9,6.86z"/>
</g>
<g>
</g>
<g>
</g>
<g>
</g>
<g>
</g>
<g>
</g>
<g>
</g>
<g>
</g>
<g>
</g>
<g>
</g>
<g>
</g>
<g>
</g>
<g>
</g>
<g>
</g>
<g>
</g>
<g>
</g>
</svg>
