<svg xmlns="http://www.w3.org/2000/svg" width="121.31" height="20.52" viewBox="0 0 121.31 20.52"><defs><style>.a{fill:#fff;}</style></defs><title>villagerdb-hat-joined-with-text</title><path class="a" d="M68.77,8.76a.61.61,0,0,1,.62-.42.65.65,0,0,1,.7.6.56.56,0,0,1,0,.21l-2.81,7.1a1.31,1.31,0,0,1-1.23.9,1.38,1.38,0,0,1-1.25-1L62.22,9.52a.89.89,0,0,1-.06-.38.93.93,0,0,1,1-.87.84.84,0,0,1,.83.57L66.17,15a.13.13,0,0,0,.13.09.14.14,0,0,0,.13-.09Z"/><path class="a" d="M65.76,16a1.2,1.2,0,0,0,.42.12.22.22,0,0,1-.16.07.35.35,0,0,1-.26-.19M63.14,8.27a.93.93,0,0,0-1,.87.89.89,0,0,0,.06.38l2.54,6.65a1.38,1.38,0,0,0,1.25,1h0a1.31,1.31,0,0,0,1.21-.9l2.81-7.1a.56.56,0,0,0,0-.21.65.65,0,0,0-.7-.6h0a.62.62,0,0,0-.62.42L66.43,15a.14.14,0,0,1-.13.09.13.13,0,0,1-.13-.09L64,8.84a.84.84,0,0,0-.83-.57Z"/><path class="a" d="M70.79,9.18a1,1,0,1,1,1,1A1,1,0,0,1,70.79,9.18Zm.14,2.57a.81.81,0,0,1,.82-.84.82.82,0,0,1,.84.86l0,4.62a.77.77,0,0,1-.83.81.79.79,0,0,1-.83-.82Z"/><path class="a" d="M71.78,8.2a1,1,0,0,0,0,2h0a1,1,0,0,0,0-2Zm0,2.71a.8.8,0,0,0-.82.84l0,4.63a.79.79,0,0,0,.83.82h0a.78.78,0,0,0,.82-.81l0-4.62a.82.82,0,0,0-.84-.86Z"/><path class="a" d="M74.15,8.75a.85.85,0,0,1,1.7,0l-.07,7.66a.85.85,0,0,1-1.7,0Z"/><path class="a" d="M75,7.91a.81.81,0,0,0-.84.84l-.07,7.66a.8.8,0,0,0,.84.83h0a.8.8,0,0,0,.85-.82l.07-7.66A.82.82,0,0,0,75,7.91Z"/><path class="a" d="M77.47,8.78a.85.85,0,1,1,1.69,0l-.07,7.66a.85.85,0,0,1-1.69,0Z"/><path class="a" d="M78.31,7.94a.81.81,0,0,0-.84.84l-.07,7.66a.8.8,0,0,0,.84.83h0a.8.8,0,0,0,.84-.82l.07-7.66a.81.81,0,0,0-.85-.85Z"/><path class="a" d="M85.47,15.73c0,.4.13.53.27.53l.09,0,.16,0a.38.38,0,0,1,.35.41c0,.45-.65.71-1.26.7s-1-.38-1.06-.64a3,3,0,0,1-1.93.63c-1.17,0-1.93-.6-1.92-1.67a2,2,0,0,1,1.49-1.93,20.3,20.3,0,0,1,2.26-.44c0-.91-.31-1.25-1.11-1.26a2,2,0,0,0-1.36.6.59.59,0,0,1-.4.17.53.53,0,0,1-.53-.51c0-.63,1.34-1.28,2.57-1.27,1.47,0,2.42.77,2.4,2.23ZM83.89,14.2c-1.18.11-2,.29-2.06,1.16a.81.81,0,0,0,.89.94c.53,0,1.16-.37,1.16-.68Z"/><path class="a" d="M83.06,11c-1.22,0-2.53.65-2.54,1.27a.53.53,0,0,0,.53.51h0a.59.59,0,0,0,.4-.17A2,2,0,0,1,82.8,12h0c.8,0,1.12.35,1.11,1.26a20.3,20.3,0,0,0-2.26.44,2,2,0,0,0-1.49,1.93c0,1.07.75,1.66,1.92,1.67h0a3,3,0,0,0,1.9-.63c.07.26.34.64,1.06.64h0c.61,0,1.24-.25,1.24-.7a.38.38,0,0,0-.35-.41h0a.4.4,0,0,0-.15,0l-.09,0c-.14,0-.27-.13-.27-.53l0-2.5c0-1.46-.93-2.21-2.4-2.23Zm.83,3.2v1.42c0,.31-.62.68-1.15.68h0a.81.81,0,0,1-.89-.94c0-.87.88-1,2.06-1.16Z"/><path class="a" d="M88.57,15.62c0,.19.17.27.82.3,2.6.13,3.38.72,3.37,2s-1.39,2.05-3.25,2c-1.6,0-2.86-.58-2.85-1.69a1.49,1.49,0,0,1,.85-1.28,1,1,0,0,1-.43-.85A1.54,1.54,0,0,1,87.8,15a2,2,0,0,1-1-1.85c0-1.46,1.31-2.12,2.71-2.11a3.46,3.46,0,0,1,1.32.24,1.88,1.88,0,0,1,1.28-.64.84.84,0,0,1,.84.74c0,.47-.18.78-.71.77a.58.58,0,0,1-.45-.3.18.18,0,0,0-.17-.08l-.14,0a2.51,2.51,0,0,1,.58,1.45c0,1.48-1.31,2-2.78,2a2.48,2.48,0,0,1-.45-.05C88.79,15.3,88.57,15.42,88.57,15.62Zm-.72,2.53c0,.84,1.39.86,1.53.86,1,0,1.69-.32,1.69-.79,0-.7-.35-1.06-2.47-1.09A1.12,1.12,0,0,0,87.85,18.15Zm2.7-4.91c0-.86-.35-1.34-1-1.35s-1.12.43-1.13,1.32.34,1.29,1,1.29S90.54,14,90.55,13.24Z"/><path class="a" d="M92.14,10.67a1.89,1.89,0,0,0-1.27.64,3.46,3.46,0,0,0-1.32-.24h0c-1.39,0-2.67.67-2.68,2.11a2,2,0,0,0,1,1.85,1.54,1.54,0,0,0-.72,1.06,1,1,0,0,0,.43.85,1.49,1.49,0,0,0-.85,1.28c0,1.11,1.25,1.67,2.85,1.69h.07c1.82,0,3.17-.74,3.18-2s-.77-1.82-3.37-2c-.65,0-.82-.11-.82-.3s.22-.32.3-.36a2.48,2.48,0,0,0,.45.05h0c1.47,0,2.75-.56,2.77-2a2.51,2.51,0,0,0-.58-1.45l.13,0h0a.18.18,0,0,1,.17.08.58.58,0,0,0,.45.3h0c.52,0,.7-.3.7-.77a.84.84,0,0,0-.84-.74ZM89.48,14.5h0c-.71,0-1.06-.54-1-1.29s.43-1.32,1.11-1.32h0c.66,0,1,.49,1,1.35s-.34,1.26-1.07,1.26ZM89.42,19h0c-.14,0-1.54,0-1.53-.86a1.12,1.12,0,0,1,.75-1c2.12,0,2.48.39,2.47,1.09,0,.46-.69.79-1.65.79Z"/><path class="a" d="M95,14.62c.12,1.08.63,1.79,1.62,1.8a2.21,2.21,0,0,0,1.6-.65.56.56,0,0,1,.4-.19.53.53,0,0,1,.51.53c0,.54-1.14,1.34-2.57,1.33a2.93,2.93,0,0,1-3.24-3.19,3,3,0,0,1,3.12-3.12,2.7,2.7,0,0,1,2.81,2.95.64.64,0,0,1-.59.57Zm2.35-.86c.1,0,.21,0,.22-.15v-.06c0-.94-.45-1.48-1.16-1.49-.91,0-1.4.69-1.41,1.65v0Z"/><path class="a" d="M96.42,11.13a3,3,0,0,0-3.09,3.12,2.93,2.93,0,0,0,3.24,3.19h0c1.42,0,2.53-.79,2.54-1.33a.53.53,0,0,0-.51-.53h0a.54.54,0,0,0-.4.19,2.17,2.17,0,0,1-1.58.65h0c-1,0-1.5-.72-1.62-1.8l3.66,0h0a.63.63,0,0,0,.59-.57,2.7,2.7,0,0,0-2.81-2.95Zm.94,2.63-2.35,0v0c0-1,.49-1.65,1.4-1.65h0c.71,0,1.16.55,1.16,1.49v.06c0,.12-.12.15-.22.15Z"/><path class="a" d="M100.25,11.91a.8.8,0,0,1,.87-.72.69.69,0,0,1,.75.71,2,2,0,0,1,1.67-.68c.41,0,.79.09.79.55a.57.57,0,0,1-.55.58h0a1,1,0,0,0-.24,0c-.9,0-1.64.41-1.65,1.38l0,2.95a.81.81,0,1,1-1.61,0Z"/><path class="a" d="M101.11,11.19a.8.8,0,0,0-.86.72l0,4.73a.77.77,0,0,0,.8.83h0a.78.78,0,0,0,.8-.81l0-2.95c0-1,.73-1.38,1.62-1.38h0a1,1,0,0,1,.24,0h.05a.57.57,0,0,0,.54-.58c0-.46-.38-.55-.79-.55h0a2,2,0,0,0-1.64.68.69.69,0,0,0-.75-.71Z"/><path class="a" d="M106.36,17.43a1.1,1.1,0,0,1-1.2-1.13l.06-6.39a1.17,1.17,0,0,1,1.22-1.14h1.78c2.77,0,4.85,1.12,4.83,4.22,0,3.35-2.13,4.47-5,4.44Zm1.85-1.05c1.69,0,2.87-1.14,2.89-3.36,0-2.39-1-3.2-2.9-3.22h-.84a.35.35,0,0,0-.32.35L107,16a.37.37,0,0,0,.38.33Z"/><path class="a" d="M106.43,8.77a1.18,1.18,0,0,0-1.21,1.14l-.06,6.39a1.1,1.1,0,0,0,1.2,1.13h1.83c2.78,0,4.83-1.13,4.86-4.44,0-3.1-2.06-4.19-4.83-4.22h-1.79Zm1.81,7.61h-.88A.37.37,0,0,1,107,16l.06-5.89a.36.36,0,0,1,.31-.35h.85c1.88,0,2.92.83,2.9,3.22,0,2.21-1.18,3.36-2.86,3.36Z"/><path class="a" d="M115.37,17.51a1.14,1.14,0,0,1-1.26-1.18l.06-6.36a1.13,1.13,0,0,1,1.19-1.12l2.59,0c1.66,0,2.85.74,2.84,2.18a2,2,0,0,1-1.27,1.74,0,0,0,0,0,0,0h0A2.22,2.22,0,0,1,121.31,15c0,1.73-1.59,2.52-3.66,2.5Zm2-1a1.8,1.8,0,0,0,2-1.68c0-1-1.12-1.38-2.14-1.39h-1.45l0,2.85a.21.21,0,0,0,.24.22Zm-1.29-6.66a.28.28,0,0,0-.25.28l0,2.34a11,11,0,0,0,2.16-.12A1.37,1.37,0,0,0,119,11c0-1-1.35-1.11-1.75-1.12Z"/><path class="a" d="M115.34,8.85A1.13,1.13,0,0,0,114.17,10l-.06,6.36a1.14,1.14,0,0,0,1.26,1.18h2.35c2,0,3.57-.78,3.59-2.5a2.22,2.22,0,0,0-1.79-2.21h0a0,0,0,0,1,0,0,2,2,0,0,0,1.27-1.74c0-1.44-1.18-2.16-2.84-2.18l-2.59,0Zm.76,3.6h-.26l0-2.34a.28.28,0,0,1,.25-.28h1.08c.4,0,1.76.11,1.75,1.12a1.37,1.37,0,0,1-1,1.37,9.52,9.52,0,0,1-1.9.12Zm1.33,4h-1.38a.21.21,0,0,1-.24-.22l0-2.85h1.45c1,0,2.15.35,2.14,1.39a1.8,1.8,0,0,1-2,1.68Z"/><path class="a" d="M53.17,0a7.78,7.78,0,0,1,.51,2.77c0,3.94-3,7.3-7.11,8.57C45.57,6.57,38.1,2.82,29,2.77s-16.57,3.8-17.57,8.57C7.28,10.07,4.32,6.71,4.32,2.77A7.78,7.78,0,0,1,4.83,0a11.27,11.27,0,0,0,6.45,20.52H46.72A11.27,11.27,0,0,0,53.17,0Z"/></svg>