<svg xmlns="http://www.w3.org/2000/svg" width="121" height="23" viewBox="0 0 121 23"><defs><style>.a{fill:#fff;}</style></defs><title>logo-navbar</title><path class="a" d="M67.58,11.2a.63.63,0,0,1,.63-.42.66.66,0,0,1,.7.6.56.56,0,0,1,0,.21l-2.81,7.1a1.31,1.31,0,0,1-1.23.9,1.37,1.37,0,0,1-1.25-1L61,12a1.06,1.06,0,0,1-.07-.38,1,1,0,0,1,1-.87.82.82,0,0,1,.82.57L65,17.44a.13.13,0,0,0,.13.09.14.14,0,0,0,.13-.09Z"/><path class="a" d="M64.58,18.4a1.2,1.2,0,0,0,.42.12.24.24,0,0,1-.16.07.33.33,0,0,1-.26-.19M62,10.71a1,1,0,0,0-1,.87A1.06,1.06,0,0,0,61,12l2.54,6.65a1.37,1.37,0,0,0,1.25,1h0a1.32,1.32,0,0,0,1.22-.9l2.81-7.1a.56.56,0,0,0,0-.21.66.66,0,0,0-.7-.6h0a.64.64,0,0,0-.62.42l-2.33,6.24a.14.14,0,0,1-.13.09.13.13,0,0,1-.13-.09l-2.21-6.16a.82.82,0,0,0-.82-.57Z"/><path class="a" d="M69.61,11.62a1,1,0,0,1,2,0,1,1,0,0,1-1,1A1,1,0,0,1,69.61,11.62Zm.14,2.57a.8.8,0,0,1,.82-.84.82.82,0,0,1,.84.86l0,4.62a.78.78,0,0,1-.83.81.79.79,0,0,1-.83-.82Z"/><path class="a" d="M70.6,10.64a1,1,0,0,0,0,2h0a1,1,0,0,0,0-2Zm0,2.71a.8.8,0,0,0-.82.84l0,4.63a.79.79,0,0,0,.83.82h0a.78.78,0,0,0,.82-.81l0-4.62a.82.82,0,0,0-.84-.86Z"/><path class="a" d="M73,11.19a.81.81,0,0,1,.85-.84.82.82,0,0,1,.85.85l-.07,7.66a.85.85,0,0,1-1.7,0Z"/><path class="a" d="M73.81,10.35a.81.81,0,0,0-.84.84l-.07,7.66a.8.8,0,0,0,.84.83h0a.81.81,0,0,0,.85-.82l.07-7.66a.82.82,0,0,0-.85-.85Z"/><path class="a" d="M76.29,11.22a.85.85,0,1,1,1.69,0l-.07,7.66a.85.85,0,0,1-1.69,0Z"/><path class="a" d="M77.13,10.38a.81.81,0,0,0-.84.84l-.07,7.66a.8.8,0,0,0,.84.83h0a.8.8,0,0,0,.84-.82L78,11.23a.81.81,0,0,0-.85-.85Z"/><path class="a" d="M84.29,18.17c0,.4.13.53.27.53l.09,0a.41.41,0,0,1,.16,0,.38.38,0,0,1,.35.41c0,.45-.65.71-1.26.7s-1-.38-1.06-.64a3,3,0,0,1-1.93.63c-1.17,0-1.93-.6-1.92-1.66a2,2,0,0,1,1.49-1.94,19.87,19.87,0,0,1,2.26-.44c0-.91-.32-1.25-1.11-1.26a2.08,2.08,0,0,0-1.37.6.53.53,0,0,1-.92-.34c0-.63,1.34-1.28,2.57-1.27,1.47,0,2.42.77,2.4,2.23Zm-1.58-1.53c-1.18.11-2,.29-2.06,1.16a.81.81,0,0,0,.89.94c.53,0,1.16-.37,1.16-.68Z"/><path class="a" d="M81.88,13.44c-1.23,0-2.54.65-2.54,1.27a.52.52,0,0,0,.52.51h0a.55.55,0,0,0,.39-.17,2,2,0,0,1,1.36-.6h0c.79,0,1.12.35,1.11,1.26a19.87,19.87,0,0,0-2.26.44A2,2,0,0,0,79,18.09c0,1.06.75,1.65,1.92,1.66h0a3,3,0,0,0,1.9-.63c.07.26.34.64,1.06.64h0c.6,0,1.24-.25,1.24-.7a.38.38,0,0,0-.35-.41h0a.4.4,0,0,0-.15,0l-.09,0c-.14,0-.27-.13-.27-.53l0-2.5c0-1.46-.93-2.21-2.4-2.23Zm.83,3.2v1.42c0,.31-.62.68-1.15.68h0a.81.81,0,0,1-.89-.94c0-.87.87-1.05,2.06-1.16Z"/><path class="a" d="M87.39,18.06c0,.19.17.27.82.3,2.6.13,3.38.72,3.37,1.95s-1.39,2.05-3.25,2c-1.6,0-2.86-.58-2.85-1.69a1.47,1.47,0,0,1,.85-1.28,1,1,0,0,1-.43-.85,1.54,1.54,0,0,1,.72-1.06,2,2,0,0,1-1-1.85c0-1.46,1.31-2.12,2.71-2.11a3.5,3.5,0,0,1,1.32.24A1.88,1.88,0,0,1,91,13.11a.84.84,0,0,1,.84.74c0,.47-.18.78-.71.77a.58.58,0,0,1-.45-.3.18.18,0,0,0-.17-.08l-.14,0a2.51,2.51,0,0,1,.58,1.45c0,1.48-1.31,2-2.78,2a3.75,3.75,0,0,1-.45,0C87.61,17.75,87.39,17.87,87.39,18.06Zm-.73,2.53c0,.84,1.4.86,1.54.86,1,0,1.69-.32,1.69-.79,0-.7-.35-1.06-2.47-1.09A1.15,1.15,0,0,0,86.66,20.59Zm2.7-4.91c0-.86-.34-1.34-1-1.35s-1.11.43-1.12,1.32.34,1.29,1,1.29S89.36,16.4,89.36,15.68Z"/><path class="a" d="M91,13.11a1.87,1.87,0,0,0-1.27.64,3.5,3.5,0,0,0-1.32-.24h0c-1.38,0-2.66.67-2.67,2.11a2,2,0,0,0,1,1.85,1.54,1.54,0,0,0-.72,1.06,1,1,0,0,0,.43.85,1.47,1.47,0,0,0-.85,1.28c0,1.11,1.25,1.67,2.85,1.69h.07c1.82,0,3.17-.74,3.18-2s-.77-1.82-3.37-1.95c-.65,0-.82-.11-.82-.3s.22-.31.3-.35a3.75,3.75,0,0,0,.45,0h0c1.47,0,2.75-.56,2.77-2a2.51,2.51,0,0,0-.58-1.45l.13,0h0a.18.18,0,0,1,.17.08.58.58,0,0,0,.45.3h0c.52,0,.7-.3.7-.77a.84.84,0,0,0-.84-.74Zm-2.67,3.83h0c-.71,0-1.06-.54-1-1.29s.42-1.32,1.11-1.32h0c.67,0,1,.49,1,1.35s-.33,1.26-1.07,1.26Zm-.05,4.51h0c-.14,0-1.54,0-1.54-.86a1.15,1.15,0,0,1,.76-1c2.12,0,2.48.39,2.47,1.09,0,.46-.69.79-1.65.79Z"/><path class="a" d="M93.83,17.06c.11,1.08.63,1.79,1.62,1.8a2.17,2.17,0,0,0,1.6-.65.56.56,0,0,1,.4-.19.51.51,0,0,1,.5.53c0,.55-1.13,1.34-2.56,1.33a2.93,2.93,0,0,1-3.24-3.19,3,3,0,0,1,3.12-3.12,2.7,2.7,0,0,1,2.8,2.95.62.62,0,0,1-.58.57Zm2.35-.86c.1,0,.21,0,.21-.15V16c0-.94-.44-1.48-1.15-1.48-.92,0-1.4.68-1.41,1.64v0Z"/><path class="a" d="M95.24,13.57a3,3,0,0,0-3.09,3.12,2.93,2.93,0,0,0,3.24,3.19h0c1.42,0,2.53-.79,2.53-1.33a.51.51,0,0,0-.5-.53h0a.54.54,0,0,0-.39.19,2.17,2.17,0,0,1-1.58.65h0c-1,0-1.51-.72-1.62-1.8l3.66,0h0a.62.62,0,0,0,.58-.57,2.7,2.7,0,0,0-2.8-2.95Zm.94,2.63-2.35,0v0c0-1,.49-1.64,1.4-1.64h0c.71,0,1.16.54,1.15,1.48v.06c0,.12-.11.15-.21.15Z"/><path class="a" d="M99.07,14.35a.8.8,0,0,1,.86-.72.68.68,0,0,1,.75.71,2,2,0,0,1,1.68-.68c.4,0,.79.09.79.55a.57.57,0,0,1-.55.58h0l-.25,0c-.89,0-1.63.41-1.64,1.38l0,3a.79.79,0,0,1-.81.81.77.77,0,0,1-.8-.82Z"/><path class="a" d="M99.92,13.63a.79.79,0,0,0-.85.72l0,4.74a.77.77,0,0,0,.8.82h0a.78.78,0,0,0,.81-.81l0-3c0-1,.73-1.38,1.62-1.38h0l.25,0h0a.58.58,0,0,0,.54-.58c0-.46-.39-.55-.79-.55h0a2,2,0,0,0-1.65.68.68.68,0,0,0-.75-.71Z"/><path class="a" d="M105.18,19.87a1.1,1.1,0,0,1-1.2-1.13l.06-6.39a1.16,1.16,0,0,1,1.21-1.14H107c2.77,0,4.85,1.12,4.82,4.22,0,3.35-2.12,4.47-5,4.44ZM107,18.82c1.7,0,2.87-1.14,2.89-3.36,0-2.39-1-3.2-2.89-3.22h-.85c-.16,0-.31.18-.31.35l-.06,5.89a.37.37,0,0,0,.38.33Z"/><path class="a" d="M105.25,11.21A1.18,1.18,0,0,0,104,12.35L104,18.74a1.1,1.1,0,0,0,1.2,1.13H107c2.78,0,4.82-1.13,4.85-4.44,0-3.1-2-4.19-4.82-4.22h-1.79Zm1.81,7.61h-.88a.37.37,0,0,1-.38-.33l.06-5.89a.36.36,0,0,1,.31-.35H107c1.88,0,2.92.83,2.89,3.22,0,2.21-1.18,3.36-2.85,3.36Z"/><path class="a" d="M114.19,20a1.14,1.14,0,0,1-1.26-1.18l.06-6.36a1.13,1.13,0,0,1,1.18-1.12l2.6,0c1.66,0,2.85.74,2.84,2.18a2,2,0,0,1-1.27,1.74h0a2.22,2.22,0,0,1,1.78,2.21c0,1.74-1.58,2.52-3.66,2.5Zm2-1a1.81,1.81,0,0,0,2-1.69c0-1-1.12-1.38-2.15-1.39h-1.45l0,2.85a.21.21,0,0,0,.24.22Zm-1.29-6.67a.28.28,0,0,0-.26.28l0,2.34a11,11,0,0,0,2.16-.12,1.37,1.37,0,0,0,1-1.37c0-1-1.35-1.11-1.76-1.12Z"/><path class="a" d="M114.16,11.29A1.12,1.12,0,0,0,113,12.41l-.06,6.36A1.14,1.14,0,0,0,114.19,20h2.35c2,0,3.57-.78,3.58-2.5a2.22,2.22,0,0,0-1.78-2.21h0a2,2,0,0,0,1.27-1.74c0-1.44-1.18-2.16-2.84-2.18l-2.6,0Zm.75,3.6h-.25l0-2.34a.29.29,0,0,1,.26-.28H116c.41,0,1.77.11,1.76,1.12a1.37,1.37,0,0,1-1,1.37,9.68,9.68,0,0,1-1.91.12Zm1.34,4.05h0l-1.36,0a.21.21,0,0,1-.24-.22l0-2.85h1.45c1,0,2.16.35,2.15,1.39a1.81,1.81,0,0,1-2,1.69Z"/><path class="a" d="M53.12,1.49a7.82,7.82,0,0,1,.5,2.73c0,3.88-2.92,7.19-7,8.45-1-4.68-8.26-8.35-17.15-8.45h-.17C20.4,4.32,13.13,8,12.14,12.67c-4.09-1.26-7-4.57-7-8.45a7.6,7.6,0,0,1,.51-2.73A11.11,11.11,0,0,0,12,21.72H29.26v0h.23v0H46.76A11.11,11.11,0,0,0,53.12,1.49Z"/><path class="a" d="M46.76,22.22H29.49v0h-.23v0H12A11.61,11.61,0,0,1,5.35,1.08L6.67.15,6.1,1.66a7.29,7.29,0,0,0-.47,2.56c0,3.4,2.46,6.48,6.16,7.8,1.43-4.58,8.54-8.07,17-8.29v0h.51l.12.5v-.5l.51,0v0c8.48.21,15.61,3.7,17,8.29,3.7-1.32,6.16-4.4,6.16-7.8a7.29,7.29,0,0,0-.47-2.56L52.08.15l1.32.93a11.61,11.61,0,0,1-6.64,21.14ZM30,21.22H46.76A10.61,10.61,0,0,0,54,2.85a7.84,7.84,0,0,1,.12,1.37c0,4-3,7.57-7.36,8.92l-.52.17-.12-.54c-.95-4.49-8.11-7.95-16.66-8h-.17c-8.55.1-15.71,3.56-16.66,8.05l-.11.54L12,13.14c-4.4-1.35-7.36-4.93-7.36-8.92a7.84,7.84,0,0,1,.12-1.37A10.61,10.61,0,0,0,12,21.22H30Z"/></svg>